<?xml version="1.0" encoding="UTF-8" standalone="no"?>
<svg
   xmlns:dc="http://purl.org/dc/elements/1.1/"
   xmlns:cc="http://creativecommons.org/ns#"
   xmlns:rdf="http://www.w3.org/1999/02/22-rdf-syntax-ns#"
   xmlns:svg="http://www.w3.org/2000/svg"
   xmlns="http://www.w3.org/2000/svg"
   xmlns:sodipodi="http://sodipodi.sourceforge.net/DTD/sodipodi-0.dtd"
   xmlns:inkscape="http://www.inkscape.org/namespaces/inkscape"
   inkscape:version="1.0 (4035a4fb49, 2020-05-01)"
   sodipodi:docname="SpedometerOutline.svg"
   viewBox="0 0 1365.3333 1365.3333"
   height="1365.3333"
   width="1365.3333"
   id="svg10"
   version="1.1">
  <metadata
     id="metadata16">
    <rdf:RDF>
      <cc:Work
         rdf:about="">
        <dc:format>image/svg+xml</dc:format>
        <dc:type
           rdf:resource="http://purl.org/dc/dcmitype/StillImage" />
        <dc:title></dc:title>
      </cc:Work>
    </rdf:RDF>
  </metadata>
  <defs
     id="defs14" />
  <sodipodi:namedview
     inkscape:current-layer="layer1"
     inkscape:window-maximized="0"
     inkscape:window-y="132"
     inkscape:window-x="2057"
     inkscape:cy="641.79241"
     inkscape:cx="584.33536"
     inkscape:zoom="0.34906494"
     showgrid="false"
     id="namedview12"
     inkscape:window-height="754"
     inkscape:window-width="1411"
     inkscape:pageshadow="2"
     inkscape:pageopacity="0"
     guidetolerance="10"
     gridtolerance="10"
     objecttolerance="10"
     borderopacity="1"
     bordercolor="#666666"
     pagecolor="#ffffff" />
  <g
     style="opacity:1"
     inkscape:label="Path"
     id="layer1"
     inkscape:groupmode="layer">
    <path
       id="path22"
       d="m 504.66665,1266.6636 c -1.46666,-0.6357 -6.71666,-2.6951 -11.66666,-4.5764 -21.76719,-8.2729 -27.6984,-10.7162 -39,-16.0657 -26.52844,-12.5571 -44.29463,-21.6981 -55.33333,-28.4702 -2.56667,-1.5746 -6.16667,-3.5945 -8,-4.4886 -1.83334,-0.8941 -5.02938,-2.9989 -7.10231,-4.6775 -2.07292,-1.6785 -4.31623,-3.0519 -4.98511,-3.0519 -0.66888,0 -4.76641,-2.7 -9.10562,-6 -4.33922,-3.3 -8.39988,-6 -9.02371,-6 -1.05609,0 -10.94881,-7.3513 -31.32512,-23.2776 -12.03212,-9.4045 -34.00397,-28.3591 -40.8368,-35.229 l -5.80845,-5.84 3.90475,-4.16 c 2.14761,-2.2881 8.71693,-9.2601 14.59849,-15.4934 5.88155,-6.2333 13.31652,-14.2673 16.52213,-17.8533 3.20563,-3.586 9.42842,-10.2533 13.82842,-14.8162 4.4,-4.563 12.79999,-13.5466 18.66666,-19.9636 5.86667,-6.4169 13.11052,-14.3404 16.09747,-17.6077 l 5.43078,-5.9406 6.09923,5.7613 c 7.96183,7.5207 17.777,16.2973 24.09956,21.5496 2.78321,2.3121 6.49939,5.4927 8.25819,7.0681 5.80668,5.201 18.53677,14.5786 28.01477,20.6371 32.79859,20.9654 60.67472,35.2053 99,50.5719 3.72806,1.4948 3.727,1.5573 -0.31518,18.5934 -3.52036,14.8369 -14.47505,61.4838 -20.19646,86 -6.41035,27.4683 -5.66567,25.9986 -11.8217,23.3303 z m -1.5747,-26.997 c 1.19348,-5.3166 4.3095,-18.6666 6.9245,-29.6666 7.4682,-31.415 13.98354,-59.7562 13.98354,-60.8272 0,-0.5385 -4.95,-2.8738 -11,-5.1896 -11.92298,-4.5638 -50.38421,-24.0113 -62.29395,-31.4981 -4.055,-2.5491 -12.77272,-7.9947 -19.37272,-12.1013 -11.47062,-7.1371 -24.96969,-16.8161 -30.66666,-21.9884 -11.94207,-10.8422 -27.38203,-23.7288 -28.43044,-23.7288 -0.70455,0 -6.26702,5.55 -12.36102,12.3334 -6.09401,6.7833 -15.38453,16.8333 -20.64558,22.3333 -5.26107,5.5 -13.68999,14.4684 -18.73093,19.9298 -5.04095,5.4614 -10.37163,11.1614 -11.84596,12.6667 -6.90078,7.0456 -7.27826,6.1612 8.37266,19.6166 38.54832,33.1408 70.27263,54.7779 113.89519,77.6806 24.35406,12.7863 63.05869,29.7443 68.54041,30.0301 0.80356,0.042 2.43749,-4.2738 3.63096,-9.5905 z M 245.64859,1090.0829 C 228.87898,1070.9855 196,1026.3769 196,1022.7221 c 0,-0.7638 -0.53164,-1.3888 -1.18142,-1.3888 -0.64977,0 -2.16636,-1.95 -3.37018,-4.3333 -1.20384,-2.3834 -2.75511,-5.2334 -3.44728,-6.3334 C 173.20208,987.14794 144,928.19034 144,921.83048 c 0,-1.00677 -0.6,-1.8305 -1.33334,-1.8305 -0.73333,0 -1.33333,-0.93878 -1.33333,-2.08616 0,-1.14739 -1.30367,-5.11662 -2.89704,-8.8205 l -2.89703,-6.73434 3.23036,-2.44578 c 1.77671,-1.34518 4.5283,-2.77432 6.11463,-3.17585 1.58635,-0.40155 11.78635,-4.97571 22.66667,-10.1648 19.19404,-9.1541 24.12766,-11.4471 37.44907,-17.4052 3.48334,-1.55794 10.23334,-4.63101 15,-6.82905 9.72819,-4.48592 22.24602,-10.14708 29.50071,-13.34161 5.47379,-2.41032 7.83263,-1.22479 7.83263,3.93662 0,1.68667 0.46358,3.06667 1.03018,3.06667 0.5666,0 1.69683,2.55 2.51162,5.66667 1.91565,7.32764 10.03482,26.86757 11.40362,27.44443 0.58002,0.24446 1.0678,1.14446 1.08396,2 0.0663,3.51043 22.27984,45.24842 31.97062,60.07108 1.1,1.68252 3.73218,5.70483 5.8493,8.93847 2.11712,3.23364 7.20787,10.37935 11.31276,15.87935 8.4636,11.34006 8.25988,11.08053 17.48406,22.27364 l 6.81825,8.27368 -7.70845,8.393 c -4.23966,4.6162 -10.41915,11.2408 -13.7322,14.7213 -3.31304,3.4806 -9.02372,9.6747 -12.69039,13.7647 -3.66667,4.09 -9.96667,10.9415 -14,15.2257 -28.76683,30.5558 -36.82589,39.2671 -38.38065,41.4868 -0.9738,1.3903 -2.18654,2.5197 -2.69495,2.5097 -0.50843,-0.01 -5.88253,-5.6644 -11.94247,-12.5656 z m 23.79954,-21.0374 c 6.17018,-6.7583 16.01853,-17.3694 21.8852,-23.5801 5.86666,-6.2108 12.16666,-13.0801 14,-15.2653 1.83333,-2.1851 7.63677,-8.4466 12.89653,-13.9145 l 9.56321,-9.9414 -10.56298,-13.81256 c -18.55696,-24.26573 -30.27015,-43.03726 -46.8282,-75.04682 -6.59539,-12.75 -13.38647,-26.85 -15.09131,-31.33333 -6.62029,-17.40987 -8.60263,-20.93367 -11.04448,-19.63275 -1.24636,0.664 -15.46611,7.20567 -31.59944,14.53701 -31.41436,14.2754 -58.32189,26.82168 -59.01942,27.51921 -0.23551,0.23551 0.42828,2.45248 1.47509,4.9266 20.81761,49.20218 33.40237,73.06642 58.96212,111.80874 12.70364,19.2556 41.16121,56.0205 43.36368,56.0224 0.4298,3e-4 5.8298,-5.5289 12,-12.2872 z M 123.36099,862.33331 c -3.12591,-9.87104 -10.09971,-38.3036 -10.82197,-44.12174 -0.46963,-3.78304 -1.96652,-11.07826 -3.32643,-16.21159 -1.35991,-5.13333 -2.79753,-14.70063 -3.19471,-21.26065 -0.39718,-6.56004 -1.27748,-14.06004 -1.95622,-16.66667 -3.75947,-14.43788 -4.255734,-100.13217 -0.71465,-123.40601 0.33472,-2.2 0.91914,-7 1.29871,-10.66667 1.94532,-18.79207 3.37629,-26.01089 5.13814,-25.92051 0.85221,0.0437 4.54947,0.67126 8.21614,1.39454 3.66666,0.7233 9.36666,1.82451 12.66666,2.44714 3.3,0.62262 11.1,2.15806 17.33334,3.41208 6.23333,1.25401 12.83333,2.50514 14.66666,2.78028 11.70026,1.7559 49.57255,9.13587 61.77436,12.03762 4.27589,1.01687 9.00257,1.84885 10.50375,1.84885 2.4762,0 2.63828,0.52564 1.7473,5.66667 -1.18668,6.84719 -1.59706,9.93377 -2.70354,20.33333 -0.46815,4.4 -1.13855,10.4 -1.48979,13.33334 -0.96469,8.05666 -0.79521,47.48197 0.27228,63.33333 0.51855,7.7 0.95233,15.8 0.96396,18 0.0496,9.36898 7.92341,53.49281 10.40631,58.31524 0.65562,1.27338 1.19204,2.58345 1.19204,2.91125 0,0.54948 -7.81296,4.40423 -30.91599,15.25328 -4.90379,2.30279 -9.1794,4.18689 -9.50135,4.18689 -0.32194,0 -7.70974,3.37454 -16.41734,7.49895 -23.03785,10.91207 -37.31356,17.52693 -55.4255,25.68227 -7.83071,3.52596 -8.5424,3.51268 -9.71216,-0.18122 z m 21.45123,-20.43462 c 5.78662,-2.62238 14.72111,-6.77332 19.85444,-9.22432 5.13334,-2.45102 20.73334,-9.6688 34.66667,-16.03954 13.93333,-6.37072 26.34177,-12.11864 27.57432,-12.77314 1.86805,-0.99199 2.01125,-1.91155 0.86049,-5.52586 -0.75927,-2.38472 -1.88396,-7.33585 -2.49931,-11.00252 -0.61534,-3.66666 -2.02982,-12.06666 -3.14328,-18.66666 -1.11345,-6.6 -2.68301,-26.7308 -3.4879,-44.73512 -1.39156,-31.12748 -0.91328,-48.11428 2.16049,-76.73407 l 0.87379,-8.13585 -5.83596,-0.8808 c -3.20979,-0.48445 -8.53598,-1.49497 -11.83597,-2.24561 -3.3,-0.75064 -16.2,-3.20714 -28.66667,-5.45888 -12.46667,-2.25174 -26.86667,-4.93448 -32,-5.96163 -5.13333,-1.02716 -12.43659,-2.3564 -16.22946,-2.95387 l -6.89612,-1.0863 -0.72209,4.09606 c -3.58183,20.31815 -4.14309,31.3467 -4.00835,78.76274 0.0954,33.57768 0.65958,52.52109 1.67268,56.16479 0.84078,3.02398 2.08235,12.02398 2.75904,20 0.67668,7.97603 2.11346,17.50187 3.19283,21.16854 1.07937,3.66666 2.36196,9.96666 2.85019,14 0.99492,8.21901 6.90302,32 7.95003,32 0.21397,0 5.12353,-2.14558 10.91014,-4.76796 z m 84.52111,-251.9623 c -4.76667,-1.02198 -13.46667,-2.76695 -19.33334,-3.87771 -5.86666,-1.11075 -12.16666,-2.31988 -13.99999,-2.68696 -1.83334,-0.36708 -6.33334,-1.26593 -10,-1.99747 -3.66667,-0.73153 -8.76667,-1.57245 -11.33334,-1.86872 C 172.1,579.20927 164.3,577.74168 157.33333,576.2442 150.36666,574.74673 138.96666,572.48799 132,571.22476 c -18.17287,-3.2952 -17.39755,-2.52853 -14.31443,-14.15477 1.42012,-5.35518 3.0447,-11.83667 3.61018,-14.40334 0.56548,-2.56666 2.07198,-7.64308 3.34777,-11.2809 1.2758,-3.63784 2.48672,-7.83784 2.69094,-9.33334 0.82508,-6.04217 15.46064,-45.77746 22.18911,-60.24305 2.09537,-4.50484 3.80976,-8.57377 3.80976,-9.04206 0,-1.0204 15.66393,-32.26168 20.44015,-40.76731 1.85306,-3.3 4.97925,-9 6.94706,-12.66667 1.96782,-3.66666 4.41071,-7.6139 5.42866,-8.77165 1.01793,-1.15775 1.8508,-2.44751 1.8508,-2.86613 0,-2.33571 27.0999,-42.74055 34.67269,-51.69555 3.41078,-4.03333 8.77684,-10.78333 11.92456,-15 6.04609,-8.0993 8.16202,-9.12578 10.99381,-5.33333 0.95824,1.28333 7.14227,7.13333 13.74227,13 6.6,5.86667 12.3,10.97963 12.66666,11.36213 1.26436,1.319 22.17302,20.66708 34.54992,31.9712 6.8249,6.23333 16.07215,14.78333 20.54946,19 4.4773,4.21667 8.61157,7.66667 9.18726,7.66667 2.498,0 0.57779,3.8534 -5.39976,10.836 -7.93026,9.26365 -25.31594,35.32628 -35.01957,52.49733 -21.08992,37.31966 -31.03868,60.57146 -45.92479,107.33333 -1.28397,4.03333 -3.01761,10.63333 -3.85254,14.66667 -1.77524,8.57574 -2.78232,8.93253 -16.75664,5.9364 z m 5.65564,-19.60307 c 1.10985,-3.11667 3.68074,-11.06667 5.7131,-17.66667 5.73322,-18.61842 19.78948,-53.79702 28.08794,-70.29561 4.68142,-9.30741 19.81566,-35.98126 25.17529,-44.37105 10.70668,-16.75989 14.94728,-23.15077 19.63907,-29.59743 4.89516,-6.72609 4.96676,-6.98494 2.42442,-8.76566 -1.44082,-1.00919 -16.28673,-14.44579 -32.9909,-29.8591 -16.70418,-15.4133 -32.51244,-29.88539 -35.12948,-32.16019 l -4.75824,-4.136 -7.97072,9.59251 c -16.43883,19.78367 -44.70729,65.27218 -61.85089,99.52803 -5.03772,10.06621 -18.91296,42.52517 -21.76795,50.92268 -1.08612,3.19466 -2.56973,7.30849 -3.29692,9.14182 -0.72717,1.83334 -2.68035,7.83334 -4.34037,13.33334 -1.66004,5.5 -4.20258,13.6 -5.65007,18 -1.44751,4.4 -3.10459,10.1 -3.6824,12.66666 -0.57781,2.56667 -1.43966,5.91167 -1.91521,7.43335 -1.04197,3.33415 -3.09158,2.85469 68.65769,16.06095 9.9,1.82221 19.8,3.82018 22,4.43996 8.1264,2.2893 9.49976,1.78646 11.65564,-4.26759 z M 357.87214,370.12679 c -4.0059,-4.00485 -17.56667,-16.65719 -29.93761,-27.93207 -3.33602,-3.04043 -12.33602,-11.29194 -20,-18.33669 -7.664,-7.04476 -17.53454,-16.09214 -21.93454,-20.1053 -19.16062,-17.47611 -19.81356,-18.23219 -17.8306,-20.6476 7.00108,-8.52788 40.79192,-39.67788 56.60592,-52.18203 10.01987,-7.92272 12.28672,-9.68071 17.89135,-13.87511 3.3,-2.46965 9,-6.52617 12.66666,-9.01448 3.66667,-2.4883 6.96667,-4.87691 7.33334,-5.30802 0.70493,-0.82884 17.52521,-11.79275 21.56834,-14.05883 1.30842,-0.73333 7.04079,-4.13673 12.73863,-7.5631 15.46337,-9.29887 43.21172,-23.76231 56.35969,-29.37671 25.0712,-10.70584 30.29365,-12.89612 32.20785,-13.50789 1.64532,-0.52586 2.91927,0.94806 5,5.78488 1.53568,3.56978 2.79215,7.43742 2.79215,8.59476 0,1.15733 0.53,3.1461 1.17777,4.41949 1.74478,3.42984 3.58635,8.3188 5.39228,14.31524 0.88342,2.93333 2.1134,6.53333 2.7333,8 0.61988,1.46667 2.96066,8.36667 5.20173,15.33333 7.1128,22.1112 8.38032,25.93755 9.49616,28.66667 1.74327,4.26374 2.89812,7.71397 4.01661,12 0.57412,2.2 2.60498,8.1974 4.513,13.32756 1.90803,5.13014 3.46915,10.11077 3.46915,11.06802 0,0.95727 -2.25,2.65695 -5,3.77707 -2.75,1.12012 -9.84503,4.38951 -15.76672,7.26531 -5.92171,2.87578 -11.42171,5.2287 -12.22223,5.2287 -0.80052,0 -1.65549,0.45 -1.89994,1 -0.24444,0.55 -4.34444,2.94095 -9.11111,5.31322 -11.67492,5.81036 -37.88476,20.89666 -40,23.02389 -0.36666,0.36875 -3.96666,2.91451 -8,5.65725 -14.78308,10.05279 -23.61514,16.38656 -25.57257,18.33898 -1.10281,1.1 -4.02632,3.5 -6.49667,5.33333 -7.41193,5.50068 -25.05238,21.21958 -34.44916,30.69666 l -8.81493,8.89028 z m 31.97733,-41.26532 c 8.14945,-6.80808 18.41719,-14.87146 22.81719,-17.91861 4.4,-3.04716 11.65805,-8.17543 16.129,-11.39616 4.47094,-3.22075 11.67094,-7.99448 16,-10.60831 9.34038,-5.63962 46.94042,-26.27173 47.8777,-26.27173 0.35877,0 5.09316,-2.16649 10.52084,-4.81443 l 9.86852,-4.81442 -2.34197,-6.18558 c -3.42771,-9.05322 -6.74806,-18.69689 -8.78624,-25.5189 -4.1702,-13.95815 -21.18223,-62.86904 -22.61068,-65.00745 -1.17,-1.75152 -55.74221,24.75501 -73.99051,35.93828 -4.03333,2.47178 -8.80093,5.37353 -10.59466,6.44833 -9.31384,5.5808 -34.23382,22.7728 -45.11315,31.12304 -6.80596,5.22378 -14.51382,11.12506 -17.12858,13.11396 -12.18346,9.26722 -45.96263,40.57264 -45.73302,42.38384 0.0465,0.36666 4.94026,4.86666 10.87506,10 5.9348,5.13333 12.96022,11.43333 15.61208,14 2.65184,2.56666 13.80689,12.82648 24.78898,22.79958 10.98211,9.97311 20.75495,19.08179 21.71743,20.24151 1.54938,1.8669 2.52508,1.34961 8.5124,-4.51302 3.71933,-3.64188 13.43017,-12.19185 21.57961,-18.99993 z m 173.54328,-81.19481 c -0.28795,-0.91667 -1.21092,-4.06667 -2.05106,-7 -0.84012,-2.93333 -2.03585,-6.53333 -2.65717,-8 -0.62132,-1.46667 -2.94176,-8.36667 -5.15651,-15.33333 -4.50202,-14.16139 -8.04614,-24.66791 -9.67,-28.66667 -0.5956,-1.46666 -2.30652,-6.56666 -3.80205,-11.33333 -1.49552,-4.76667 -3.22945,-9.86667 -3.85317,-11.33333 -2.66588,-6.26879 -12.47984,-36.22898 -12.66592,-38.66667 -0.14562,-1.90768 0.74518,-2.79367 3.12978,-3.1129 1.83334,-0.24543 3.90334,-0.99543 4.6,-1.66667 0.69667,-0.67123 2.57808,-1.22043 4.18092,-1.22043 1.60284,0 4.63284,-0.8963 6.73334,-1.99178 2.10049,-1.09549 4.97648,-1.99549 6.39108,-2 1.4146,-0.005 4.4146,-0.56089 6.66666,-1.23638 5.16502,-1.54921 19.60206,-4.78347 33.428,-7.48871 5.86667,-1.1479 13.06667,-2.60023 16,-3.2274 2.93334,-0.62717 10.13333,-1.52639 16,-1.99828 5.86667,-0.47188 11.7236,-1.17049 13.01541,-1.55245 6.81068,-2.013796 46.96511,-4.035696 73.15383,-3.683524 31.06625,0.417761 71.26925,3.417024 73.32229,5.470054 1.50439,1.50439 -8.58633,51.26759 -21.97573,108.37513 l -4.53288,19.33334 -3.8248,-0.20023 c -2.10363,-0.11013 -8.92479,-0.60605 -15.15812,-1.10207 -13.99693,-1.1138 -51.20917,-1.07452 -67.33333,0.0711 -6.6,0.46891 -14.7,0.9978 -18,1.17529 -3.3,0.1775 -10.2,1.02382 -15.33334,1.8807 -5.13333,0.85689 -12.3032,1.94464 -15.93304,2.41721 -3.62985,0.47257 -8.12985,1.65776 -9.99999,2.63375 -1.87016,0.97598 -5.08756,1.77821 -7.14976,1.78273 -2.06222,0.004 -6.56222,0.85252 -10,1.88445 -28.57619,8.57778 -26.76834,8.19744 -27.52444,5.79043 z m 23.94057,-19.16 c 2.93333,-0.99065 6.96297,-1.80992 8.95476,-1.8206 1.99179,-0.0107 5.59179,-0.87199 8,-1.91404 2.40821,-1.04205 9.77857,-2.61188 16.37857,-3.48849 6.6,-0.87663 14.10747,-2.10879 16.68327,-2.73814 5.26272,-1.28585 65.5251,-3.52236 89.84924,-3.33456 l 15.86585,0.12254 2.40053,-10 c 4.36454,-18.18152 19.78608,-89.84155 19.41629,-90.22265 -0.1188,-0.12245 -8.76525,-0.95145 -19.2143,-1.84221 -21.24268,-1.81094 -94.18491,-0.96482 -104.33421,1.21022 -3.3,0.7072 -12.55863,1.93924 -20.57475,2.73787 -8.0161,0.79862 -16.4161,2.04631 -18.66666,2.77263 -2.25055,0.72633 -10.39192,2.57774 -18.09192,4.11426 -27.93151,5.57365 -34.51142,7.13557 -39,9.25768 -2.01667,0.95344 -3.66667,2.27123 -3.66667,2.92841 0,0.65718 3.64769,11.81087 8.106,24.78598 4.45829,12.9751 8.60681,25.3911 9.21892,27.5911 1.12635,4.04822 9.04273,27.29872 12.80729,37.61521 1.93684,5.30774 2.28136,5.5717 6.29175,4.82059 2.33349,-0.43704 6.64271,-1.60515 9.57604,-2.5958 z"
       style="fill:#000000;stroke-width:1.33333" />
  </g>
</svg>
